<?xml version="1.0"?>
<!--Icons from directory ""-->
<svg xmlns="http://www.w3.org/2000/svg" width="32" height="1152" viewBox="0 0 32 1152"><svg xmlns:xlink="http://www.w3.org/1999/xlink" id="angry-1" style="enable-background:new 0 0 473.935 473.935" xml:space="preserve" viewBox="0 0 473.935 473.935" version="1.1" y="0" x="0px" width="32" height="32"><circle cx="236.97" r="236.97" cy="236.97" fill="#FFC10E"/><g fill="#333">	<circle cx="164.94" r="37.216" cy="192.66"/>	<circle cx="305.67" r="37.216" cy="192.66"/>	<path d="m318.26 101.31c-28.673 12.707-57.35 25.418-86.024 38.125h9.441c-28.673-12.707-57.343-25.418-86.016-38.125-10.926-4.842-20.453 11.274-9.441 16.153 15.469 6.855 30.933 13.714 46.398 20.569 9.927 4.4 19.858 8.801 29.785 13.201 4.034 1.789 9.961 5.635 14.556 5.635s10.522-3.847 14.556-5.635c9.927-4.4 19.858-8.801 29.788-13.201 15.469-6.855 30.937-13.714 46.402-20.569 11-4.89 1.47-21.003-9.45-16.16z"/>	<path d="m105.24 326.86h259.16c12.067 0 12.067-18.709 0-18.709h-259.16c-12.062 0-12.062 18.71 0 18.71z"/></g></svg><svg xmlns:xlink="http://www.w3.org/1999/xlink" id="angry" style="enable-background:new 0 0 473.931 473.931" xml:space="preserve" viewBox="0 0 473.931 473.931" version="1.1" y="32" x="0px" width="32" height="32"><circle cx="236.97" r="236.97" cy="236.97" fill="#FFC10E"/><g fill="#333">	<path d="m106.88 85.989c25.141 18.817 50.282 37.638 75.423 56.456 9.669 7.237 18.978-9.018 9.44-16.153-25.141-18.817-50.282-37.638-75.423-56.456-9.66-7.238-18.974 9.016-9.44 16.155z"/>	<path d="m356.3 69.832c-25.141 18.817-50.282 37.638-75.423 56.456-9.538 7.139-0.228 23.39 9.44 16.153 25.141-18.817 50.282-37.638 75.423-56.456 9.54-7.134 0.23-23.388-9.44-16.152z"/>	<circle cx="164.94" r="37.216" cy="155.23"/>	<circle cx="305.66" r="37.216" cy="155.23"/></g><path d="m392.51 377.72c0-85.911-69.645-155.56-155.56-155.56s-155.56 69.649-155.56 155.56h311.12z" fill="#fff"/><g fill="#CCCBCB">	<path d="m306.18 377.72v-139.31c-6.02-3.001-12.269-5.609-18.709-7.82v147.13h18.71z"/>	<path d="m190.59 377.72v-148.53c-6.432 2.006-12.666 4.453-18.709 7.244v141.29h18.709z"/></g></svg><svg xmlns:xlink="http://www.w3.org/1999/xlink" id="bored-1" style="enable-background:new 0 0 473.931 473.931" xml:space="preserve" viewBox="0 0 473.931 473.931" version="1.1" y="64" x="0px" width="32" height="32"><circle cx="236.97" r="236.97" cy="236.97" fill="#FFC10E"/><g fill="#333">	<path d="m374.19 172.97c-16.801-35.584-57.331-51.868-94.057-37.59-11.117 4.325-6.286 22.421 4.973 18.043 29.522-11.48 59.371 0.277 72.927 28.987 5.15 10.91 21.28 1.41 16.16-9.44z"/>	<path d="m122.24 182.33c13.556-28.711 43.404-40.471 72.927-28.987 11.259 4.378 16.09-13.717 4.973-18.043-36.725-14.282-77.252 2.006-94.057 37.59-5.11 10.84 11.02 20.34 16.16 9.44z"/>	<path d="m283.16 287.82c0 39.981-20.684 72.384-46.203 72.384-25.511 0-46.203-32.404-46.203-72.384 0-39.962 20.692-72.384 46.203-72.384 25.51-0.01 46.2 32.41 46.2 72.38z"/></g></svg><svg xmlns:xlink="http://www.w3.org/1999/xlink" id="bored-2" style="enable-background:new 0 0 473.931 473.931" xml:space="preserve" viewBox="0 0 473.931 473.931" version="1.1" y="96" x="0px" width="32" height="32"><circle cx="236.97" r="236.97" cy="236.97" fill="#FFC10E"/><g fill="#333">	<circle cx="346.15" r="25.762" cy="335.71"/>	<path d="m243.5 112.91c1.684 31.251 23.992 53.56 55.243 55.247 31.184 1.68 53.698-26.525 55.247-55.247 0.651-12.063-18.061-12-18.709 0-2.537 47.094-70.536 47.094-73.069 0-0.65-12-19.36-12.07-18.71 0z"/>	<path d="m108.69 112.91c1.684 31.255 23.988 53.56 55.243 55.247 31.184 1.68 53.694-26.525 55.243-55.247 0.651-12.063-18.061-12-18.709 0-2.537 47.094-70.532 47.094-73.065 0-0.64-12-19.36-12.07-18.71 0z"/></g></svg><svg xmlns:xlink="http://www.w3.org/1999/xlink" id="bored" style="enable-background:new 0 0 473.935 473.935" xml:space="preserve" viewBox="0 0 473.935 473.935" version="1.1" y="128" x="0px" width="32" height="32"><circle cx="236.97" r="236.97" cy="236.97" fill="#FFC10E"/><g fill="#333">	<path d="m340.01 335.74c0 56.886-46.129 103.04-103.04 103.04s-103.04-46.159-103.04-103.04c0-56.916 46.129-103.05 103.04-103.05s103.04 46.13 103.04 103.05z"/>	<ellipse rx="37.216" ry="19.757" cy="155.23" cx="164.94"/>	<ellipse rx="37.216" ry="19.757" cy="155.23" cx="305.67"/></g></svg><svg xmlns:xlink="http://www.w3.org/1999/xlink" id="confused-1" style="enable-background:new 0 0 473.931 473.931" xml:space="preserve" viewBox="0 0 473.931 473.931" version="1.1" y="160" x="0px" width="32" height="32"><circle cx="236.97" r="236.97" cy="236.97" fill="#FFC10E"/><g fill="#333">	<path d="m230.33 309.42c-34.514 58.038-123.34 39.532-129.38-28.894-1.051-11.921-19.771-12.022-18.709 0 3.592 40.628 30.608 73.069 70.865 81.844 37.294 8.127 74.454-11.682 93.376-43.505 6.17-10.4-10.01-19.8-16.16-9.44z"/>	<path d="m393.96 359.46c2.193-43.045-24.523-79.872-65.877-91.684-38.428-10.978-78.517 9.362-98.195 42.454-6.181 10.395 9.994 19.801 16.149 9.44 37.709-63.415 132.95-33.657 129.21 39.79-0.61 12.06 18.1 12 18.72 0z"/>	<circle cx="164.94" r="37.216" cy="155.23"/>	<circle cx="305.66" r="62.162" cy="155.23"/></g></svg><svg xmlns:xlink="http://www.w3.org/1999/xlink" id="confused" style="enable-background:new 0 0 473.931 473.931" xml:space="preserve" viewBox="0 0 473.931 473.931" version="1.1" y="192" x="0px" width="32" height="32"><circle cx="236.97" r="236.97" cy="236.97" fill="#FFC10E"/><g fill="#333">	<circle cx="164.94" r="37.216" cy="155.23"/>	<circle cx="305.66" r="37.216" cy="155.23"/>	<path d="m105.28 326.58h259.16c12.067 0 12.067-18.709 0-18.709h-259.16c-12.069 0-12.069 18.71 0 18.71z"/></g></svg><svg xmlns:xlink="http://www.w3.org/1999/xlink" id="crying-1" style="enable-background:new 0 0 473.931 473.931" xml:space="preserve" viewBox="0 0 473.931 473.931" version="1.1" y="224" x="0px" width="32" height="32"><circle cx="236.97" r="236.97" cy="236.97" fill="#FFC10E"/><g fill="#75CDDE">	<path d="m366.53 278.29c-13.205 0-25.736-7.817-31.113-20.771-11.113-26.765-24.928-49.754-39.951-66.484-12.426-13.837-11.285-35.131 2.552-47.558 13.837-12.426 35.128-11.289 47.554 2.556 20.336 22.645 37.848 51.464 52.044 85.66 7.132 17.178-1.01 36.883-18.189 44.014-4.21 1.75-8.58 2.58-12.89 2.58z"/>	<path d="m113.46 278.29c-4.303 0-8.677-0.831-12.902-2.582-17.178-7.128-25.32-26.836-18.189-44.014 14.196-34.196 31.708-63.015 52.044-85.66 12.426-13.833 33.717-14.982 47.554-2.556s14.978 33.721 2.552 47.558c-15.023 16.729-28.838 39.715-39.951 66.484-5.37 12.95-17.9 20.77-31.11 20.77z"/></g><g fill="#333">	<circle cx="164.94" r="37.216" cy="155.23"/>	<circle cx="305.66" r="37.216" cy="155.23"/>	<path d="m296.38 302.02c0 43.805-26.57 79.344-59.356 79.344s-59.356-35.539-59.356-79.344c0-43.827 26.57-79.348 59.356-79.348s59.36 35.53 59.36 79.35z"/></g></svg><svg xmlns:xlink="http://www.w3.org/1999/xlink" id="crying" style="enable-background:new 0 0 473.935 473.935" xml:space="preserve" viewBox="0 0 473.935 473.935" version="1.1" y="256" x="0px" width="32" height="32"><circle cx="236.97" r="236.97" cy="236.97" fill="#FFC10E"/><path d="m357.64 355.14c-66.005-68.621-174.86-68.763-241.06-0.341-8.389 8.666 4.827 21.912 13.227 13.227 59.266-61.249 155.52-61.088 214.61 0.341 8.37 8.72 21.59-4.53 13.22-13.23z" fill="#333"/><g fill="#75CDDE">	<path d="m116.89 124.85c-19.588 20.954-35.974 44.827-48.913 70.387-13.818 27.296-7.42 60.647 20.135 76.793 25.182 14.75 62.986 7.139 76.793-20.138 5.051-9.976 10.529-19.652 16.587-29.055 2.848-4.415 5.934-8.666 9.066-12.879-9.658 12.995 3.173-3.027 5.702-5.732 20.879-22.331 22.17-57.208 0-79.375-21.07-21.09-58.48-22.36-79.37-0.01z"/>	<path d="m414.99 216.28c-13.643-32.157-31.708-61.126-54.776-87.427-20.183-23.016-58.81-20.565-79.375 0-22.683 22.683-20.153 56.396 0 79.375 1.998 2.226 3.944 4.501 5.841 6.818-4.026-5.369-4.135-5.474-0.333-0.318 3.817 5.212 7.252 10.69 10.638 16.183 8.239 13.351 14.96 27.603 21.074 42.028 11.959 28.187 52.961 34.091 76.793 20.135 28.87-16.9 32.08-48.62 20.14-76.78z"/></g><g fill="#333">	<circle cx="164.94" r="37.216" cy="155.23"/>	<circle cx="305.67" r="37.216" cy="155.23"/></g></svg><svg xmlns:xlink="http://www.w3.org/1999/xlink" id="embarrassed" style="enable-background:new 0 0 473.935 473.935" xml:space="preserve" viewBox="0 0 473.935 473.935" version="1.1" y="288" x="0px" width="32" height="32"><circle cx="236.97" r="236.97" cy="236.97" fill="#FFC10E"/><g fill="#333">	<circle cx="236.97" r="25.762" cy="335.71"/>	<circle cx="164.94" r="37.216" cy="155.23"/>	<circle cx="305.67" r="37.216" cy="155.23"/></g><g fill="#F0AE1D">	<circle cx="80.845" r="44.785" cy="262.79"/>	<circle cx="389.74" r="44.785" cy="262.79"/></g></svg><svg xmlns:xlink="http://www.w3.org/1999/xlink" id="emoticons" style="enable-background:new 0 0 473.931 473.931" xml:space="preserve" viewBox="0 0 473.931 473.931" version="1.1" y="320" x="0px" width="32" height="32"><circle cx="236.97" r="236.97" cy="236.97" fill="#FFC10E"/><g fill="#333">	<circle cx="175.26" r="41.657" cy="110.33"/>	<circle cx="291.6" r="41.657" cy="110.33"/>	<path d="m269.29 341.55h91.415c12.063 0 12.063-18.709 0-18.709h-91.415c-12.06 0-12.06 18.71 0.01 18.71z"/></g></svg><svg xmlns:xlink="http://www.w3.org/1999/xlink" id="happy-1" style="enable-background:new 0 0 473.931 473.931" xml:space="preserve" viewBox="0 0 473.931 473.931" version="1.1" y="352" x="0px" width="32" height="32"><circle cx="236.97" r="236.97" cy="236.97" fill="#FFC10E"/><path d="m81.391 237.12c0 85.911 69.649 155.56 155.56 155.56 85.915 0 155.56-69.649 155.56-155.56h-311.12 0.001z" fill="#fff"/><g fill="#CCCBCB">	<path d="m167.73 237.12v139.31c6.024 3.001 12.273 5.609 18.709 7.82v-147.13h-18.71z"/>	<path d="m283.32 237.12v148.53c6.432-2.006 12.666-4.453 18.709-7.24v-141.29h-18.71z"/></g><g fill="#333">	<path d="m219.18 158.79c-1.684-31.255-23.992-53.56-55.243-55.243-31.184-1.68-53.698 26.522-55.243 55.243-0.651 12.063 18.061 12 18.709 0 2.537-47.09 70.536-47.09 73.069 0 0.64 12 19.35 12.07 18.7 0z"/>	<path d="m353.98 158.79c-1.684-31.255-23.992-53.56-55.243-55.243-31.184-1.68-53.694 26.522-55.243 55.243-0.651 12.063 18.061 12 18.709 0 2.537-47.09 70.532-47.09 73.069 0 0.64 12 19.36 12.07 18.7 0z"/></g></svg><svg xmlns:xlink="http://www.w3.org/1999/xlink" id="happy-2" style="enable-background:new 0 0 473.931 473.931" xml:space="preserve" viewBox="0 0 473.931 473.931" version="1.1" y="384" x="0px" width="32" height="32"><circle cx="236.97" r="236.97" cy="236.97" fill="#FFC10E"/><path d="m81.391 237.13c0 85.911 69.649 155.56 155.56 155.56 85.915 0 155.57-69.649 155.57-155.56h-311.13z" fill="#333"/><path d="m150.45 298.7c0 47.771 38.731 86.498 86.498 86.498 47.775 0 86.502-38.731 86.502-86.498h-173z" fill="#CA2027"/><g fill="#333">	<circle cx="164.94" r="37.216" cy="155.23"/>	<circle cx="305.66" r="37.216" cy="155.23"/></g></svg><svg xmlns:xlink="http://www.w3.org/1999/xlink" id="happy-3" style="enable-background:new 0 0 473.931 473.931" xml:space="preserve" viewBox="0 0 473.931 473.931" version="1.1" y="416" x="0px" width="32" height="32"><circle cx="236.97" r="236.97" cy="236.97" fill="#FFC10E"/><g fill="#333">	<path d="m201.85 462.97v8.359c11.454 1.699 23.165 2.604 35.094 2.604 11.637 0 23.064-0.876 34.252-2.496v-8.468c0.01-44.71-69.34-44.71-69.34 0.01z"/>	<circle cx="164.94" r="37.216" cy="155.23"/>	<circle cx="305.66" r="37.216" cy="155.23"/>	<path d="m343.25 316.86c-59.277 60.332-154.67 59.857-213.45-0.898-8.4-8.685-21.616 4.557-13.227 13.227 65.761 67.973 173.65 68.336 239.9 0.898 8.47-8.61-4.75-21.85-13.22-13.23z"/></g></svg><svg xmlns:xlink="http://www.w3.org/1999/xlink" id="happy-4" style="enable-background:new 0 0 473.931 473.931" xml:space="preserve" viewBox="0 0 473.931 473.931" version="1.1" y="448" x="0px" width="32" height="32"><circle cx="236.97" r="236.97" cy="236.97" fill="#FFC10E"/><path d="m392.52 237.12c0 85.915-69.653 155.56-155.57 155.56-85.911 0-155.56-69.645-155.56-155.56h311.13z" fill="#fff"/><g fill="#333">	<circle cx="164.94" r="37.216" cy="155.23"/>	<circle cx="305.66" r="37.216" cy="155.23"/></g></svg><svg xmlns:xlink="http://www.w3.org/1999/xlink" id="happy" style="enable-background:new 0 0 473.931 473.931" xml:space="preserve" viewBox="0 0 473.931 473.931" version="1.1" y="480" x="0px" width="32" height="32"><circle cx="236.97" r="236.97" cy="236.97" fill="#FFC10E"/><g fill="#333">	<path d="m383.16 237.12c-1.332 80.699-65.514 144.87-146.21 146.21-80.702 1.332-144.91-67.52-146.21-146.21-0.198-12.052-18.907-12.071-18.709 0 1.5 90.921 73.993 163.41 164.91 164.91 90.929 1.5 163.46-76.25 164.92-164.91 0.21-12.07-18.5-12.05-18.7 0z"/>	<circle cx="164.94" r="37.216" cy="155.23"/>	<circle cx="305.66" r="37.216" cy="155.23"/></g></svg><svg xmlns:xlink="http://www.w3.org/1999/xlink" id="ill" style="enable-background:new 0 0 473.931 473.931" xml:space="preserve" viewBox="0 0 473.931 473.931" version="1.1" y="512" x="0px" width="32" height="32"><circle cx="236.97" r="236.97" cy="236.97" fill="#81C241"/><circle cx="236.97" r="28.254" cy="318.27" fill="#5E9A42"/><g fill="#333">	<circle cx="164.94" r="37.216" cy="155.23"/>	<circle cx="305.66" r="37.216" cy="155.23"/></g><g fill="#67AF45">	<path d="m203.91 277.76c0 44.617-36.183 80.815-80.807 80.815-44.617 0-80.8-36.198-80.8-80.815 0-44.624 36.183-80.807 80.8-80.807 44.62 0.01 80.81 36.18 80.81 80.81z"/>	<path d="m432.05 277.76c0 44.617-36.183 80.815-80.807 80.815-44.632 0-80.815-36.198-80.815-80.815 0-44.624 36.183-80.807 80.815-80.807 44.63 0.01 80.81 36.18 80.81 80.81z"/></g></svg><svg xmlns:xlink="http://www.w3.org/1999/xlink" id="in-love" style="enable-background:new 0 0 473.931 473.931" xml:space="preserve" viewBox="0 0 473.931 473.931" version="1.1" y="544" x="0px" width="32" height="32"><circle cx="236.97" r="236.97" cy="236.97" fill="#FFC10E"/><g fill="#ED3533">	<path d="m182.13 109.97c-14.133 0-27.262 6.892-35.154 18.432l-1.628 2.069-1.089-1.388c-7.802-11.962-20.954-19.109-35.232-19.109-24.363 0-42.042 17.684-42.042 42.039 0 35.962 65.107 88.968 69.855 92.784 2.241 2.144 5.175 3.323 8.288 3.323s6.047-1.175 8.288-3.326c4.763-3.847 70.753-57.683 70.753-92.781 0-24.35-17.68-42.03-42.04-42.03z"/>	<path d="m366.7 109.97c-14.133 0-27.262 6.892-35.154 18.432l-1.628 2.069-1.089-1.388c-7.802-11.962-20.954-19.109-35.232-19.109-24.363 0-42.042 17.684-42.042 42.039 0 35.962 65.107 88.968 69.855 92.784 2.241 2.144 5.175 3.323 8.288 3.323 3.109 0 6.043-1.175 8.288-3.326 4.76-3.843 70.749-57.683 70.749-92.781-0.01-24.35-17.69-42.03-42.05-42.03z"/></g><path d="m343.25 316.86c-59.281 60.325-154.66 59.853-213.45-0.898-8.4-8.681-21.616 4.561-13.227 13.227 65.769 67.969 173.64 68.332 239.9 0.898 8.47-8.61-4.75-21.84-13.22-13.23z" fill="#333"/></svg><svg xmlns:xlink="http://www.w3.org/1999/xlink" id="kissing" style="enable-background:new 0 0 473.931 473.931" xml:space="preserve" viewBox="0 0 473.931 473.931" version="1.1" y="576" x="0px" width="32" height="32"><circle cx="236.97" r="236.97" cy="236.97" fill="#FFC10E"/><path d="m131.84 281.99h209.54s-30.806 118.1-105.53 118.1-104.01-118.1-104.01-118.1z" fill="#D22327"/><path d="m259.2 298.68c0 9.081-13.351 16.434-22.596 16.434-9.242 0-22.596-7.353-22.596-16.434 0-9.078 13.354-16.438 22.596-16.438 9.25 0 22.6 7.36 22.6 16.44z" fill="#9B1C1F"/><g fill="#333">	<path d="m374.19 172.97c-16.801-35.584-57.331-51.868-94.057-37.59-11.117 4.325-6.286 22.421 4.973 18.043 29.522-11.48 59.371 0.277 72.927 28.987 5.15 10.91 21.28 1.41 16.16-9.44z"/>	<path d="m122.24 182.33c13.556-28.711 43.404-40.471 72.927-28.987 11.259 4.378 16.09-13.717 4.973-18.043-36.725-14.282-77.252 2.006-94.057 37.59-5.11 10.84 11.02 20.34 16.16 9.44z"/></g><path d="m334.3 270.93c-26.922-14.174-53.724-74.233-97.398-30.772h-0.378c-43.67-43.461-70.476 16.598-97.398 30.772-6.978 3.674-7.143 11.016-7.143 11.016s30.159 24.628 56.351 24.628 30.473-14.499 48.272-14.499h0.21c17.803 0 22.084 14.499 48.276 14.499s56.351-24.628 56.351-24.628-0.16-7.35-7.14-11.02z" fill="#E22928"/></svg><svg xmlns:xlink="http://www.w3.org/1999/xlink" id="mad" style="enable-background:new 0 0 473.935 473.935" xml:space="preserve" viewBox="0 0 473.935 473.935" version="1.1" y="608" x="0px" width="32" height="32"><circle cx="236.97" r="236.97" cy="236.97" fill="#FFC10E"/><g fill="#333">	<path d="m357.32 354.8c-66.084-68.291-174.66-68.288-240.74 0.007-8.389 8.666 4.827 21.912 13.227 13.227 59.139-61.118 155.15-61.122 214.29-0.007 8.39 8.68 21.61-4.56 13.22-13.23z"/>	<circle cx="164.94" r="37.216" cy="192.66"/>	<circle cx="305.67" r="37.216" cy="192.66"/>	<path d="m316.36 68.389c-28.677 28.673-57.35 57.35-86.024 86.024h13.227c-28.673-28.677-57.347-57.35-86.02-86.024-8.539-8.539-21.766 4.688-13.227 13.227 28.673 28.677 57.347 57.35 86.02 86.024 3.603 3.603 9.624 3.603 13.227 0 28.677-28.673 57.35-57.35 86.024-86.024 8.54-8.539-4.69-21.77-13.23-13.227z"/></g></svg><svg xmlns:xlink="http://www.w3.org/1999/xlink" id="nerd" style="enable-background:new 0 0 473.931 473.931" xml:space="preserve" viewBox="0 0 473.931 473.931" version="1.1" y="640" x="0px" width="32" height="32"><circle cx="236.97" r="236.97" cy="236.97" fill="#FFC10E"/><g fill="#333">	<path d="m213.39 155.23c-2.66 62.491-94.225 62.491-96.885 0-1.16-27.229 22.922-47.356 48.433-48.441 27.25-1.16 47.38 22.92 48.46 48.44 0.513 12.019 19.221 12.067 18.709 0-1.605-37.698-29.463-65.548-67.157-67.15-37.65-1.601-65.642 31.869-67.142 67.15-1.601 37.642 31.861 65.649 67.142 67.15 37.653 1.601 65.657-31.865 67.157-67.15 0.51-12.07-18.2-12.02-18.71 0z"/>	<path d="m353.71 155.23c-2.66 62.491-94.225 62.491-96.885 0-1.16-27.229 22.922-47.356 48.433-48.441 27.24-1.16 47.37 22.92 48.46 48.44 0.513 12.019 19.221 12.067 18.709 0-1.605-37.698-29.463-65.548-67.157-67.15-37.65-1.601-65.642 31.869-67.142 67.15-1.601 37.642 31.861 65.649 67.142 67.15 37.653 1.601 65.657-31.865 67.157-67.15 0.51-12.07-18.2-12.02-18.71 0z"/>	<path d="m343.25 316.86c-59.281 60.336-154.66 59.849-213.45-0.898-8.4-8.685-21.616 4.561-13.227 13.227 65.769 67.965 173.64 68.343 239.9 0.898 8.47-8.61-4.75-21.85-13.22-13.23z"/>	<path d="m104.67 146.21c-26.121 4.988-62.319 9.972-92.238 14.956-2.196 6.511-4.127 13.137-5.759 19.887 31.588-5.601 73.623-11.203 102.98-16.804 11.84-2.27 6.81-20.3-4.98-18.05z"/>	<path d="m365.74 146.21c-11.787-2.249-16.819 15.779-4.977 18.039 30.252 5.774 74.637 11.543 106.59 17.317-1.62-6.75-3.525-13.381-5.706-19.895-30.63-5.16-68.89-10.32-95.9-15.47z"/>	<path d="m258.17 126.34c12.067 0 12.067-18.709 0-18.709h-46.772c-12.067 0-12.067 18.709 0 18.709h46.77z"/>	<circle cx="164.94" r="25.99" cy="155.23"/>	<circle cx="305.66" r="24.119" cy="155.23"/></g></svg><svg xmlns:xlink="http://www.w3.org/1999/xlink" id="ninja" style="enable-background:new 0 0 473.931 473.931" xml:space="preserve" viewBox="0 0 473.931 473.931" version="1.1" y="672" x="0px" width="32" height="32"><circle cx="236.97" r="236.97" cy="236.97" fill="#333"/><path d="m418.52 161.11s-96.043-71.093-185.85-71.093-183.35 71.093-183.35 71.093 195.2 129.09 369.2 0z" fill="#FFC10E"/><g fill="#333">	<circle cx="164.94" r="37.216" cy="155.23"/>	<circle cx="305.66" r="37.216" cy="155.23"/></g></svg><svg xmlns:xlink="http://www.w3.org/1999/xlink" id="quiet" style="enable-background:new 0 0 473.931 473.931" xml:space="preserve" viewBox="0 0 473.931 473.931" version="1.1" y="704" x="0px" width="32" height="32"><circle cx="236.97" r="236.97" cy="236.97" fill="#FFC10E"/><g fill="#333">	<circle cx="164.94" r="37.216" cy="155.23"/>	<circle cx="305.66" r="37.216" cy="155.23"/></g><path d="m361.08 316.53c7.154 2.78 10.694 10.836 7.91 17.99l-10.073 25.904c-2.78 7.154-10.836 10.698-17.99 7.914l-228.11-88.72c-7.154-2.78-10.698-10.836-7.914-17.994l10.077-25.9c2.78-7.154 10.836-10.694 17.99-7.914l228.1 88.72z" fill="#EFEFEF"/><path d="m337.77 223.35c7.027-3.091 15.225 0.097 18.32 7.124l11.188 25.444c3.091 7.023-0.094 15.225-7.121 18.316l-224.03 98.55c-7.027 3.091-15.229-0.101-18.32-7.128l-11.192-25.44c-3.091-7.023 0.101-15.225 7.124-18.32l224.03-98.54z" fill="#fff"/></svg><svg xmlns:xlink="http://www.w3.org/1999/xlink" id="sad" style="enable-background:new 0 0 473.935 473.935" xml:space="preserve" viewBox="0 0 473.935 473.935" version="1.1" y="736" x="0px" width="32" height="32"><circle cx="236.97" r="236.97" cy="236.97" fill="#FFC10E"/><g fill="#333">	<path d="m356.67 354.1c-66.226-67.618-174.26-67.337-240.1 0.703-8.389 8.666 4.827 21.912 13.227 13.227 58.87-60.83 154.39-61.204 213.64-0.703 8.46 8.63 21.68-4.61 13.23-13.23z"/>	<circle cx="164.94" r="37.216" cy="155.23"/>	<circle cx="305.67" r="37.216" cy="155.23"/></g></svg><svg xmlns:xlink="http://www.w3.org/1999/xlink" id="secret" style="enable-background:new 0 0 473.935 473.935" xml:space="preserve" viewBox="0 0 473.935 473.935" version="1.1" y="768" x="0px" width="32" height="32"><circle cx="236.97" r="236.97" cy="236.97" fill="#FFC10E"/><g fill="#333">	<circle cx="164.94" r="37.216" cy="155.23"/>	<circle cx="305.67" r="37.216" cy="155.23"/>	<path d="m105.28 326.58h259.16c12.067 0 12.067-18.709 0-18.709h-259.16c-12.068 0-12.068 18.71 0 18.71z"/>	<path d="m112.94 300.53v16.838c0 6.032 9.354 6.032 9.354 0v-16.838c0-6.03-9.35-6.03-9.35 0z"/>	<path d="m170.93 300.53v16.838c0 6.032 9.354 6.032 9.354 0v-16.838c0.01-6.03-9.35-6.03-9.35 0z"/>	<path d="m228.93 300.53v16.838c0 6.032 9.354 6.032 9.354 0v-16.838c0-6.03-9.35-6.03-9.35 0z"/>	<path d="m286.93 300.53v16.838c0 6.032 9.354 6.032 9.354 0v-16.838c0-6.03-9.35-6.03-9.35 0z"/>	<path d="m141.62 316.44v16.838c0 6.032 9.354 6.032 9.354 0v-16.838c0-6.04-9.35-6.04-9.35 0z"/>	<path d="m199.62 316.44v16.838c0 6.032 9.354 6.032 9.354 0v-16.838c0-6.04-9.35-6.04-9.35 0z"/>	<path d="m257.62 316.44v16.838c0 6.032 9.354 6.032 9.354 0v-16.838c0-6.04-9.35-6.04-9.35 0z"/>	<path d="m315.61 316.44v16.838c0 6.032 9.354 6.032 9.354 0v-16.838c0.01-6.04-9.35-6.04-9.35 0z"/>	<path d="m390.38 335.52h-30.338c-4.977 0-30.151-14.937-30.151-19.091 0-4.153 24.894-19.091 30.151-19.091h30.338c10.54 0 10.54 38.18 0 38.18z"/></g></svg><svg xmlns:xlink="http://www.w3.org/1999/xlink" id="smart" style="enable-background:new 0 0 473.931 473.931" xml:space="preserve" viewBox="0 0 473.931 473.931" version="1.1" y="800" x="0px" width="32" height="32"><circle cx="236.97" r="236.97" cy="236.97" fill="#FFC10E"/><g fill="#333">	<circle cx="164.94" r="37.216" cy="189.37"/>	<circle cx="305.66" r="37.216" cy="189.37"/>	<path d="m236.95 332.75c-41.358-0.797-78.39-16.995-107.14-46.712-8.4-8.685-21.616 4.561-13.227 13.227 32.119 33.197 74.218 51.307 120.37 52.194 12.07 0.23 12.05-18.48 0-18.71z"/>	<path d="m143.17 115.77c24.83 7.929 46.301 21.395 64.325 40.201 8.359 8.726 21.575-4.524 13.227-13.227-20.224-21.104-44.759-36.127-72.575-45.017-11.54-3.674-16.44 14.387-4.99 18.047z"/>	<path d="m261.12 154.56c23.031-12.352 47.307-18.481 73.436-18.544 12.063-0.03 12.067-18.739 0-18.709-29.358 0.071-57.021 7.233-82.876 21.104-10.64 5.7-1.19 21.86 9.44 16.15z"/></g></svg><svg xmlns:xlink="http://www.w3.org/1999/xlink" id="smile" style="enable-background:new 0 0 473.931 473.931" xml:space="preserve" viewBox="0 0 473.931 473.931" version="1.1" y="832" x="0px" width="32" height="32"><circle cx="236.97" r="236.97" cy="236.97" fill="#FFC10E"/><g fill="#333">	<circle cx="164.94" r="37.216" cy="153"/>	<circle cx="305.66" r="37.216" cy="153"/>	<path d="m236.95 362.68c-41.358-0.797-78.39-16.995-107.14-46.712-8.4-8.685-21.616 4.561-13.227 13.227 32.119 33.197 74.218 51.307 120.37 52.194 12.07 0.23 12.05-18.48 0-18.71z"/>	<path d="m120.3 105.94c19.966-16.759 42.907-27.566 68.388-32.845 11.809-2.447 6.795-20.482-4.977-18.043-28.722 5.953-54.218 18.836-76.639 37.661-9.249 7.767 4.06 20.937 13.23 13.227z"/>	<path d="m291.08 68.152c24.871 7.794 46.42 21.126 64.553 39.835 8.408 8.677 21.624-4.565 13.227-13.227-20.34-20.988-44.939-35.917-72.803-44.654-11.55-3.618-16.45 14.444-4.98 18.043z"/></g></svg><svg xmlns:xlink="http://www.w3.org/1999/xlink" id="smiling" style="enable-background:new 0 0 473.935 473.935" xml:space="preserve" viewBox="0 0 473.935 473.935" version="1.1" y="864" x="0px" width="32" height="32"><circle cx="236.97" r="236.97" cy="236.97" fill="#FFC10E"/><g fill="#333">	<circle cx="164.94" r="37.216" cy="155.23"/>	<circle cx="305.67" r="37.216" cy="155.23"/>	<path d="m343.26 316.86c-59.281 60.329-154.66 59.854-213.45-0.898-8.4-8.685-21.616 4.561-13.227 13.227 65.769 67.97 173.64 68.34 239.9 0.898 8.46-8.61-4.76-21.85-13.22-13.23z"/></g></svg><svg xmlns:xlink="http://www.w3.org/1999/xlink" id="surprised-1" style="enable-background:new 0 0 473.931 473.931" xml:space="preserve" viewBox="0 0 473.931 473.931" version="1.1" y="896" x="0px" width="32" height="32"><circle cx="236.97" r="236.97" cy="236.97" fill="#FFC10E"/><g fill="#333">	<ellipse rx="37.216" ry="35.094" cy="128.16" cx="164.97"/>	<ellipse rx="105.93" ry="105.03" cy="323.74" cx="236.97"/>	<circle cx="305.66" r="62.162" cy="128.16"/></g></svg><svg xmlns:xlink="http://www.w3.org/1999/xlink" id="surprised" style="enable-background:new 0 0 473.931 473.931" xml:space="preserve" viewBox="0 0 473.931 473.931" version="1.1" y="928" x="0px" width="32" height="32"><circle cx="236.97" r="236.97" cy="236.97" fill="#FFC10E"/><g fill="#333">	<ellipse rx="37.216" ry="70.188" cy="163.26" cx="164.94"/>	<ellipse rx="37.216" ry="70.188" cy="163.26" cx="305.66"/>	<circle cx="236.97" r="25.762" cy="342"/></g></svg><svg xmlns:xlink="http://www.w3.org/1999/xlink" id="suspicious-1" style="enable-background:new 0 0 473.935 473.935" xml:space="preserve" viewBox="0 0 473.935 473.935" version="1.1" y="960" x="0px" width="32" height="32"><circle cx="236.97" r="236.97" cy="236.97" fill="#FFC10E"/><g fill="#333">	<circle cx="164.94" r="37.216" cy="207.63"/>	<circle cx="313.64" r="37.216" cy="207.63"/>	<path d="m280.43 101.05c12.456-14.571 24.913-29.137 37.366-43.708h-13.227l75.423 60.527c9.31 7.472 22.642-5.676 13.227-13.227l-75.423-60.527c-3.719-2.986-9.658-4.176-13.227 0-12.456 14.571-24.913 29.137-37.366 43.708-7.79 9.114 5.38 22.409 13.23 13.229z"/>	<path d="m208.64 87.82c-12.456-14.571-24.909-29.137-37.365-43.708-3.57-4.176-9.508-2.986-13.227 0-25.145 20.176-50.282 40.351-75.423 60.527-9.414 7.551 3.918 20.7 13.227 13.227l75.423-60.527h-13.227c12.456 14.571 24.909 29.137 37.365 43.708 7.84 9.18 21.01-4.115 13.22-13.23z"/>	<path d="m178.59 369.4c35.831 11.326 71.659 22.66 107.49 33.99 11.54 3.648 16.438-14.421 4.977-18.043-35.831-11.326-71.659-22.66-107.49-33.99-11.54-3.65-16.44 14.41-4.98 18.04z"/></g></svg><svg xmlns:xlink="http://www.w3.org/1999/xlink" id="suspicious" style="enable-background:new 0 0 473.935 473.935" xml:space="preserve" viewBox="0 0 473.935 473.935" version="1.1" y="992" x="0px" width="32" height="32"><circle cx="236.97" r="236.97" cy="236.97" fill="#FFC10E"/><g fill="#333">	<circle cx="164.94" r="37.216" cy="207.63"/>	<ellipse rx="37.216" ry="56.501" cy="188.32" cx="313.64"/>	<path d="m195.35 102.72c-12.456 14.571-24.909 29.137-37.365 43.708h13.227l-75.423-60.527c-9.31-7.472-22.642 5.676-13.227 13.227l75.423 60.527c3.719 2.986 9.658 4.176 13.227 0 12.456-14.571 24.909-29.137 37.365-43.708 7.79-9.12-5.38-22.417-13.23-13.23z"/>	<path d="m280.43 124.75c12.456-14.571 24.913-29.137 37.366-43.708h-13.227l75.423 60.527c9.31 7.472 22.642-5.676 13.227-13.227l-75.423-60.527c-3.719-2.986-9.658-4.176-13.227 0-12.456 14.571-24.913 29.137-37.366 43.708-7.79 9.12 5.38 22.41 13.23 13.23z"/>	<path d="m178.46 386.72h112.74c12.067 0 12.067-18.709 0-18.709h-112.74c-12.07 0.01-12.07 18.71 0 18.71z"/></g></svg><svg xmlns:xlink="http://www.w3.org/1999/xlink" id="tongue-out-1" style="enable-background:new 0 0 473.931 473.931" xml:space="preserve" viewBox="0 0 473.931 473.931" version="1.1" y="1024" x="0px" width="32" height="32"><circle cx="236.97" r="236.97" cy="236.97" fill="#FFC10E"/><path d="m262.33 342.38c24.074 44.916 62.944 70.959 86.828 58.162 23.884-12.808 23.73-59.603-0.341-104.52l-86.49 46.36z" fill="#CA2027"/><g fill="#333">	<circle cx="164.94" r="37.216" cy="155.23"/>	<circle cx="305.66" r="37.216" cy="155.23"/>	<path d="m343.25 285.06c-59.281 60.328-154.66 59.846-213.45-0.898-8.4-8.681-21.616 4.561-13.227 13.227 65.769 67.965 173.64 68.336 239.9 0.898 8.47-8.61-4.75-21.85-13.22-13.23z"/></g></svg><svg xmlns:xlink="http://www.w3.org/1999/xlink" id="tongue-out" style="enable-background:new 0 0 473.935 473.935" xml:space="preserve" viewBox="0 0 473.935 473.935" version="1.1" y="1056" x="0px" width="32" height="32"><circle cx="236.97" r="236.97" cy="236.97" fill="#FFC10E"/><g fill="#333">	<circle cx="164.94" r="37.216" cy="155.23"/>	<circle cx="305.67" r="37.216" cy="155.23"/></g><path d="m220.64 317.36c0 35.431 28.726 64.157 64.157 64.157 35.435 0 64.16-28.729 64.16-64.157h-128.32z" fill="#CA2027"/><path d="m105.28 326.58h259.16c12.064 0 12.064-18.709 0-18.709h-259.16c-12.061 0-12.061 18.71 0 18.71z" fill="#333"/></svg><svg xmlns:xlink="http://www.w3.org/1999/xlink" id="unhappy" style="enable-background:new 0 0 473.935 473.935" xml:space="preserve" viewBox="0 0 473.935 473.935" version="1.1" y="1088" x="0px" width="32" height="32"><circle cx="236.97" r="236.97" cy="236.97" fill="#FFC10E"/><g fill="#333">	<path d="m356.67 354.1c-66.23-67.618-174.25-67.337-240.1 0.703-8.389 8.666 4.827 21.908 13.227 13.227 58.87-60.834 154.38-61.204 213.64-0.703 8.46 8.63 21.68-4.61 13.23-13.23z"/>	<circle cx="164.94" r="37.216" cy="155.23"/>	<circle cx="305.67" r="37.216" cy="155.23"/></g><path d="m343.17 188.61s-27.517 33.874-27.517 68.819c0 15.203 12.31 27.521 27.513 27.525 15.218-0.007 27.532-12.325 27.532-27.528 0.01-16.92-27.52-68.82-27.52-68.82z" fill="#A2D4DE"/></svg><svg xmlns:xlink="http://www.w3.org/1999/xlink" id="wink" style="enable-background:new 0 0 473.931 473.931" xml:space="preserve" viewBox="0 0 473.931 473.931" version="1.1" y="1120" x="0px" width="32" height="32"><circle cx="236.97" r="236.97" cy="236.97" fill="#FFC10E"/><g fill="#333">	<path d="m72.036 237.12c1.04 62.895 35.64 119.18 91.782 147.83 61.17 31.218 135.46 17.766 185.68-27.304 8.999-8.071-4.277-21.261-13.227-13.227-46.2 41.455-112.08 50.372-167.4 22.14-48.385-24.692-77.249-75.92-78.132-129.44-0.191-12.05-18.9-12.07-18.702 0z"/>	<ellipse rx="37.216" ry="18.709" cy="155.23" cx="164.94"/>	<circle cx="305.66" r="37.216" cy="155.23"/></g></svg></svg>
