<?xml version="1.0" encoding="utf-8"?>
<!-- Generator: Adobe Illustrator 18.0.0, SVG Export Plug-In . SVG Version: 6.00 Build 0)  -->
<!DOCTYPE svg PUBLIC "-//W3C//DTD SVG 1.1//EN" "http://www.w3.org/Graphics/SVG/1.1/DTD/svg11.dtd">
<svg version="1.1" id="Layer_1" xmlns="http://www.w3.org/2000/svg" xmlns:xlink="http://www.w3.org/1999/xlink" x="0px" y="0px"
	 viewBox="0 0 64 64" enable-background="new 0 0 64 64" xml:space="preserve">
<g>
	<g>
		<g>
			<ellipse fill="#3E76BB" cx="39.6" cy="16.2" rx="10" ry="5"/>
		</g>
		<g>
			<path fill="#3E76BB" d="M39.6,22c-4.2,0-7.7-1.2-9.5-3c-0.4,0.5-0.6,1.1-0.6,1.6c0,2.8,4.5,5,10,5s10-2.2,10-5
				c0-0.6-0.2-1.1-0.6-1.6C47.4,20.8,43.8,22,39.6,22z"/>
		</g>
		<g>
			<path fill="#3E76BB" d="M39.6,26.5c-4.2,0-7.7-1.2-9.5-3c-0.4,0.5-0.6,1.1-0.6,1.6c0,2.8,4.5,5,10,5s10-2.2,10-5
				c0-0.6-0.2-1.1-0.6-1.6C47.4,25.3,43.8,26.5,39.6,26.5z"/>
		</g>
		<g>
			<path fill="#3E76BB" d="M39.6,30.9c-4.2,0-7.7-1.2-9.5-3c-0.4,0.5-0.6,1.1-0.6,1.6c0,2.8,4.5,5,10,5s10-2.2,10-5
				c0-0.6-0.2-1.1-0.6-1.6C47.4,29.7,43.8,30.9,39.6,30.9z"/>
		</g>
		<path fill="#3E76BB" d="M15.4,49.1h-3.1c-0.5,0-0.8-0.4-0.8-0.8V35.9c0-0.5,0.4-0.8,0.8-0.8h3.1c0.5,0,0.8,0.4,0.8,0.8v12.4
			C16.3,48.7,15.9,49.1,15.4,49.1z"/>
		<path fill="#3E76BB" d="M33.4,44.2c1.9-0.1,8.7,0.2,9.4,0.3c0.7,0.1,1.1,0.1,1.4-0.1c0.4-0.2,1.6-1.2,1.6-2.6
			c-0.3-1.4-1.7-1.9-1.9-2c-1.7-0.4-4.7-1.2-8.7-1.3c-2.8-1.2-2.7-1.4-3.6-1.7c-1.2-0.5-3.7-1.1-5.6-1.1S19.9,36.3,18,37
			c-0.2,0.1-0.4,0.3-0.4,0.7c0,0.3-0.1,8.7-0.1,8.7s-0.1,0.5,0.7,0.7s1.6,0.2,1.6,0.2s11.7,5.6,13.1,6c1.4,0.4,3.1-0.1,3.6-0.2
			c0.4-0.1,7-1.3,7.7-1.2c0.7,0,1.3-0.1,1.3-0.1s1.8-1,2.5-1.4c0.7-0.5,1-0.7,1.4-1c0.5-0.3,3.6-2.2,3.7-3.5
			c0.1-1.3-0.6-0.9-0.6-0.9c0.6-0.7,0.7-1,0.7-1s0.1-0.2,0-0.7c-0.1-0.5-0.9-1.4-2.1-1.2c-1.2,0.1-2.5,0.7-3.9,1.9
			c-1.1,1-2.6,1.5-3.5,1.6c-0.8,0.1-5.6,0.2-5.6,0.2L33.4,44.2z"/>
	</g>
</g>
</svg>
