<?xml version="1.0" encoding="utf-8"?>
<!-- Generator: Adobe Illustrator 18.1.1, SVG Export Plug-In . SVG Version: 6.00 Build 0)  -->
<svg version="1.1" id="Layer_1" xmlns="http://www.w3.org/2000/svg" xmlns:xlink="http://www.w3.org/1999/xlink" x="0px" y="0px"
	 width="612px" height="792px" viewBox="0 0 612 792" enable-background="new 0 0 612 792" xml:space="preserve">
<g>
	<path d="M55.9,106.3"/>
	<g>
		<g>
			<rect x="175.1" y="14.9" width="78" height="114.7"/>
			<circle cx="182.4" cy="14.9" r="7.4"/>
			<circle cx="245.7" cy="14.9" r="7.4"/>
			<rect x="181.8" y="7.5" width="63.8" height="34"/>
		</g>
		<g>
			<rect x="325.1" y="14.9" width="78" height="114.7"/>
			<circle cx="332.4" cy="14.9" r="7.4"/>
			<circle cx="395.7" cy="14.9" r="7.4"/>
			<rect x="331.8" y="7.5" width="63.8" height="34"/>
		</g>
	</g>
	<g>
		<g>
			<rect x="175.1" y="615.6" width="78" height="114.7"/>
			<circle cx="182.4" cy="730.4" r="7.4"/>
			<circle cx="245.7" cy="730.4" r="7.4"/>
			<rect x="181.8" y="703.7" width="63.8" height="34"/>
		</g>
		<g>
			<rect x="325.4" y="615.6" width="78" height="114.7"/>
			<circle cx="332.8" cy="730.4" r="7.4"/>
			<circle cx="396" cy="730.4" r="7.4"/>
			<rect x="332.2" y="703.7" width="63.8" height="34"/>
		</g>
	</g>
	<rect x="141.4" y="162.4" width="92.5" height="397.1"/>
	<rect x="86.9" y="553" width="201.3" height="88.3"/>
	<g>
		<path d="M288.1,98.7L288.1,98.7l0,88.3h0c101.1,0,183,81.9,183,183s-81.9,183-183,183h0v88.3h0c149.8,0,271.3-121.5,271.3-271.3
			S438,98.7,288.1,98.7z"/>
	</g>
	<g>
		<rect x="84.6" y="553" width="129.9" height="88.3"/>
		<circle cx="84.6" cy="633" r="8.3"/>
		<circle cx="84.6" cy="561.4" r="8.3"/>
		<rect x="76.3" y="561.4" width="38.5" height="72.2"/>
	</g>
	<rect x="86.9" y="98.7" width="201.3" height="88.3"/>
	<g>
		<rect x="84.6" y="98.7" width="129.9" height="88.3"/>
		<circle cx="84.6" cy="179" r="8.3"/>
		<circle cx="84.6" cy="107.4" r="8.3"/>
		<rect x="76.3" y="107.4" width="38.5" height="72.2"/>
	</g>
</g>
</svg>
