<svg version="1.1" id="Layer_1" xmlns="http://www.w3.org/2000/svg" xmlns:xlink="http://www.w3.org/1999/xlink" x="0px" y="0px"
	 viewBox="0 0 612 792" enable-background="new 0 0 612 792" xml:space="preserve">
<g>
	<g>
		<path d="M602.1,439c5.5,0,9.9-4.4,9.9-9.9V289.7c0-8.2-9.9-12.9-16.2-7.7c-12.9,10.6-40.3,28.6-78.7,30
			c-44.8,1.7-76.8-20.4-88.5-30c-3.7-3-8.9-3-12.6,0c-1.7,1.4-3.5,2.8-5.4,4.1V279h32.8c5.5,0,9.9-4.4,9.9-9.9v-74.7h53.5
			c5.5,0,9.9-4.4,9.9-9.9V99.9c0-5.5-4.4-9.9-9.9-9.9H115.7c-5.5,0-9.9,4.4-9.9,9.9v74.7H52.2c-5.5,0-9.9,4.4-9.9,9.9v74.7H9.9
			c-5.5,0-9.9,4.4-9.9,9.9v84.6c0,5.5,4.4,9.9,9.9,9.9H74v64.8h-43c-5.5,0-9.9,4.4-9.9,9.9v84.6c0,5.5,4.4,9.9,9.9,9.9h21.8v64.8
			H20.5c-5.5,0-9.9,4.4-9.9,9.9v84.6c0,5.5,4.4,9.9,9.9,9.9h391.3c1.3,0,10.2,0,10.6,0s0.7,0,1-0.1c28.4-2.9,70.6-13,110.8-44.3
			c52.1-40.6,71-93.8,77.6-121.9c0.2-0.7,0.3-1.5,0.3-2.3v-52.2c0-5.5-4.4-9.9-9.9-9.9s-9.9,4.4-9.9,9.9v51
			c-6.3,25.8-23.6,73.3-70.2,109.7c-36,28.1-73.9,37.3-99.6,40.1c-25.8-2.8-63.7-12.1-99.7-40.1c-46.6-36.3-63.9-83.8-70.2-109.7
			V309c19.3,11.9,41.1,19.7,63.6,22.1c24.8,2.7,50.1-1,73.2-10.4c11.7-4.8,22.9-10.9,33.1-18.4c16.8,12.2,50.6,31.3,95.5,29.6
			c31.9-1.2,57.1-12.3,74.3-22.9V429C592.2,434.5,596.6,439,602.1,439z M337.1,675.3c4.5,2.5,8.9,4.8,13.3,6.9h-13.3V675.3z
			 M433.6,259.2h-64.8v-64.8h64.8V259.2z M432.2,109.8H497v64.8h-64.8V109.8z M358.2,109.8h54.2v64.8h-54.2V109.8z M284.2,109.8
			h54.2v64.8h-54.2L284.2,109.8L284.2,109.8z M210.2,109.8h54.2v64.8h-54.2V109.8z M125.6,513v-64.8h54.2V513H125.6z M137.5,532.8
			v64.8H72.7v-64.8H137.5z M158.6,363.6v64.8H93.8v-64.8H158.6L158.6,363.6z M104.4,343.8V279h54.2v64.8H104.4z M157.3,532.8h54.2
			v64.8h-54.2V532.8z M199.6,513v-64.8h33V513H199.6z M178.4,428.4v-64.8h54.2v64.8H178.4z M178.4,343.8V279h54.2v64.8H178.4z
			 M200.9,259.2h-54.2v-64.8h54.2V259.2z M125.6,109.8h64.8v64.8h-64.8V109.8z M62.1,194.4h64.8v64.8H62.1V194.4z M19.8,343.8V279
			h64.8v64.8h-0.7H19.8z M41,513v-64.8h64.8V513H41z M95.2,682.2H30.4v-64.8h64.8V682.2z M169.2,682.2H115v-64.8h54.2V682.2z
			 M243.2,682.2H189v-64.8h54.2V682.2z M263,617.4h7.3h0.7c10.4,13.9,23.3,27.6,39.4,40.2c2.3,1.8,4.5,3.4,6.8,5.1
			c0,0.1,0,0.2,0,0.3v19.2H263V617.4z M257.8,597.6h-26.5v-64.8h1.3v0.7c0,0.8,0.1,1.5,0.3,2.3C236.5,551,243.7,573.6,257.8,597.6z
			 M220.7,259.2v-64.8h54.2v64.8L220.7,259.2L220.7,259.2z M306.7,309.6c-24.6-5-43.1-16.2-54.2-24.6V279h54.2V309.6z M294.8,259.2
			v-64.8H349v64.8L294.8,259.2L294.8,259.2z M327.5,312.1c-0.3,0-0.7,0-1-0.1v-33h64.3v19.2c0,0,0,0,0,0
			C375.9,305.6,354,313.1,327.5,312.1z" fill="#fff"/>
	</g>
</g>
<g>
	<g>
		<path d="M557.2,348.5c-14.6,4-29.8,6-44.9,6c-30,0-58.6-7.5-85.1-22.4c-3-1.7-6.7-1.7-9.7,0c-26.5,14.9-55.2,22.4-85.1,22.4
			c-15.1,0-30.3-2-44.9-6c-6.2-1.7-12.5,3.1-12.5,9.6v49.8c0,5.5,4.4,9.9,9.9,9.9s9.9-4.4,9.9-9.9v-37.3c12.4,2.5,25,3.7,37.6,3.7
			c31.6,0,61.8-7.5,90-22.3c28.2,14.8,58.4,22.3,90,22.3c12.6,0,25.2-1.2,37.6-3.7v156.4c-5.4,19.4-19.3,54.7-53.9,81.7
			c-26.5,20.7-54.5,28.2-73.6,30.9c-19.2-2.7-47.1-10.2-73.6-30.9c-34.6-26.9-48.5-62.2-53.9-81.7v-66.8c0-5.5-4.4-9.9-9.9-9.9
			c-5.5,0-9.9,4.4-9.9,9.9v68.2c0,0.9,0.1,1.7,0.3,2.6c5.7,21.6,21.3,62.3,61.2,93.4c30.6,23.9,62.9,32.3,84.6,35.1
			c0.8,0.1,1.7,0.1,2.6,0c21.7-2.8,53.9-11.2,84.6-35.1c39.9-31.1,55.5-71.9,61.2-93.4c0.2-0.8,0.3-1.7,0.3-2.6V358.1
			C569.7,351.6,563.4,346.8,557.2,348.5z" fill="#fff"/>
	</g>
</g>
<g>
	<path d="M366.1,432.4" fill="#fff"/>
	<g>
		<g>
			<rect x="392.9" y="411.9" width="17.6" height="25.8" fill="#fff"/>
			<circle cx="394.6" cy="411.9" r="1.7" fill="#fff"/>
			<circle cx="408.8" cy="411.9" r="1.7" fill="#fff"/>
			<rect x="394.5" y="410.2" width="14.4" height="7.7" fill="#fff"/>
		</g>
		<g>
			<rect x="426.7" y="411.9" width="17.6" height="25.8" fill="#fff"/>
			<circle cx="428.3" cy="411.9" r="1.7" fill="#fff"/>
			<circle cx="442.6" cy="411.9" r="1.7"/>
			<rect x="428.2" y="410.2" width="14.4" height="7.7" fill="#fff"/>
		</g>
	</g>
	<g>
		<g>
			<rect x="392.9" y="547" width="17.6" height="25.8" fill="#fff"/>
			<circle cx="394.6" cy="572.9" r="1.7" fill="#fff"/>
			<circle cx="408.8" cy="572.9" r="1.7" fill="#fff"/>
			<rect x="394.5" y="566.9" width="14.4" height="7.7" fill="#fff"/>
		</g>
		<g>
			<rect x="426.8" y="547" width="17.6" height="25.8" fill="#fff"/>
			<circle cx="428.4" cy="572.9" r="1.7" fill="#fff"/>
			<circle cx="442.7" cy="572.9" r="1.7" fill="#fff"/>
			<rect x="428.3" y="566.9" width="14.4" height="7.7" fill="#fff"/>
		</g>
	</g>
	<rect x="385.4" y="445" width="20.8" height="89.4" fill="#fff"/>
	<rect x="373.1" y="532.9" width="45.3" height="19.9" fill="#fff"/>
	<g>
		<path d="M418.4,430.7L418.4,430.7v19.9l0,0c22.8,0,41.2,18.4,41.2,41.2s-18.4,41.2-41.2,41.2l0,0v19.9l0,0
			c33.7,0,61.1-27.3,61.1-61.1S452.1,430.7,418.4,430.7z" fill="#fff"/>
	</g>
	<g>
		<rect x="372.6" y="532.9" width="29.2" height="19.9" fill="#fff"/>
		<circle cx="372.6" cy="551" r="1.9" fill="#fff"/>
		<circle cx="372.6" cy="534.8" r="1.9" fill="#fff"/>
		<rect x="370.7" y="534.8" width="8.7" height="16.2" fill="#fff"/>
	</g>
	<rect x="373.1" y="430.7" width="45.3" height="19.9" fill="#fff"/>
	<g>
		<rect x="372.6" y="430.7" width="29.2" height="19.9" fill="#fff"/>
		<circle cx="372.6" cy="448.8" r="1.9" fill="#fff"/>
		<circle cx="372.6" cy="432.7" r="1.9" fill="#fff"/>
		<rect x="370.7" y="432.7" width="8.7" height="16.2" fill="#fff"/>
	</g>
</g>
</svg>