<?xml version="1.0" encoding="utf-8"?>
<!-- Generator: Adobe Illustrator 18.0.0, SVG Export Plug-In . SVG Version: 6.00 Build 0)  -->
<!DOCTYPE svg PUBLIC "-//W3C//DTD SVG 1.1//EN" "http://www.w3.org/Graphics/SVG/1.1/DTD/svg11.dtd">
<svg version="1.1" id="Layer_1" xmlns="http://www.w3.org/2000/svg" xmlns:xlink="http://www.w3.org/1999/xlink" x="0px" y="0px"
	 viewBox="0 0 64 64" enable-background="new 0 0 64 64" xml:space="preserve">
<g>
	<g>
		<path fill="#3E76BB" d="M32.3,10.3c0.3,0.1,0.7,0.2,1,0.3c2,0.6,3.4,2.5,3.5,4.7c0,1.5,0,3.1,0,4.7c-0.6-0.3-1.2-0.7-1.8-0.9
			c-0.9-0.2-1.1-0.8-1-1.6c0-0.3,0-0.5,0-0.8c0-0.6-0.4-1-1-1c-1.9,0-3.8,0-5.7,0c-3.7,0-7.4,0-11.1,0c-0.9,0-1.2,0.3-1.2,1.2
			c0,9.3,0,18.7,0,28c0,0.9,0.3,1.2,1.2,1.2c5.5,0,11.1,0,16.6,0c0.3,0,0.7,0,0.9-0.2c0.2-0.2,0.4-0.5,0.4-0.8c0.1-0.6,0-1.2,0-1.8
			c0-0.1,0.1-0.3,0.2-0.4c0.8-0.4,1.7-0.8,2.5-1.2c0,0.1,0,0.2,0,0.3c0,2,0,4.1,0,6.1c0,2.5-1.8,4.5-4.3,4.9c-0.1,0-0.2,0.1-0.2,0.1
			c-5.2,0-10.3,0-15.5,0c-0.1,0-0.2-0.1-0.2-0.1c-2.1-0.4-3.4-1.6-4.1-3.5c-0.1-0.2-0.1-0.4-0.2-0.6c0-11.4,0-22.7,0-34.1
			c0,0,0.1-0.1,0.1-0.1c0.4-2.2,1.7-3.5,3.9-4.1c0.2,0,0.4-0.1,0.6-0.1C21.9,10.3,27.1,10.3,32.3,10.3z M26.4,49.2
			c0-1.1-0.8-1.9-1.8-2c-1.1,0-2,0.8-2,1.9c0,1.1,0.9,2,1.9,2C25.6,51.1,26.4,50.3,26.4,49.2z M24.5,13.9c0.7,0,1.5,0,2.2,0
			c0.6,0,1-0.4,1-0.9c0-0.5-0.4-0.9-1-0.9c-1.5,0-2.9,0-4.4,0c-0.6,0-1,0.4-1,0.9c0,0.5,0.4,0.9,1,0.9
			C23.1,13.9,23.8,13.9,24.5,13.9z"/>
		<path fill="#3E76BB" d="M52.8,26.1c-0.3,0.3-0.6,0.6-1,0.9c-0.9,0.7-1.8,1.5-2.7,2.2c-0.2,0.1-0.5,0.2-0.7,0.2
			c-0.1-0.1-0.2-0.4-0.3-0.6c0-0.3,0-0.5,0-0.9c-0.2,0-0.4,0-0.6,0c-1.3,0-2.5,0-3.8,0c-0.6,0-0.7-0.1-0.7-0.7c0-0.9,0-1.9,0-2.8
			c0-0.5,0.1-0.6,0.6-0.6c1.2,0,2.5,0,3.7,0c0.2,0,0.4,0,0.7,0c0-0.3,0-0.6,0-0.9c0-0.2,0.2-0.4,0.3-0.5c0.1-0.1,0.4,0,0.6,0.1
			c1.2,0.9,2.3,1.9,3.4,2.8c0.1,0.1,0.2,0.2,0.3,0.4C52.8,25.8,52.8,26,52.8,26.1z"/>
		<path fill="#3E76BB" d="M26.1,21c4.8-1.4,8.9-0.4,12,3.7c2.5,3.4,2.7,7.9,0.4,11.4c-3,4.5-7.2,5.8-12.4,4.4c0,0.2,0,0.4,0,0.6
			c0,1-0.7,1.7-1.7,1.7c-1,0-1.7-0.7-1.7-1.7c0-2.7,0-5.4,0-8.1c0-4.2,0-8.3,0-12.5c0-1,0.4-1.6,1.2-1.8c1.1-0.3,2.1,0.4,2.2,1.6
			C26.2,20.5,26.1,20.7,26.1,21z M26.2,25.6c1.4-1,2.9-1.3,4.5-1.1c1.6,0.2,2.9,0.9,4,2.2c1.8,2.1,2,5.1,0.5,7.4
			c-1,1.5-2.3,2.4-4.1,2.8c-1.7,0.3-3.3,0-4.9-1c0,0.5,0,1,0,1.4c0,0.3,0.1,0.4,0.3,0.5c1.3,0.6,2.7,0.8,4.1,0.7
			c3.8-0.3,6.9-3.5,7-7.3c0.1-3.3-1.3-5.8-4.2-7.4c-2.2-1.2-4.6-1.2-6.9-0.2c-0.2,0.1-0.3,0.2-0.3,0.5C26.2,24.6,26.2,25,26.2,25.6z
			 M29,34.4c0,0.1,0,0.2,0,0.3c0,0.6,0.1,0.7,0.7,0.7c0.1,0,0.2,0,0.2,0c0.6,0,0.7,0,0.7-0.7c0-0.3,0.1-0.5,0.4-0.6
			c1.4-0.6,1.7-2.4,0.7-3.4c-0.3-0.3-0.8-0.5-1.2-0.8c-0.3-0.2-0.6-0.3-0.9-0.5c-0.2-0.1-0.3-0.4-0.3-0.6c0-0.2,0.3-0.4,0.5-0.4
			c0.4,0,0.8,0,1.1,0.1c0.7,0.3,0.7,0.3,1-0.5c0-0.1,0-0.1,0.1-0.2c0.1-0.3,0-0.5-0.2-0.6c-0.4-0.1-0.7-0.3-1.1-0.4c0,0,0-0.1,0-0.2
			c0-0.8,0-0.7-0.8-0.7c0,0,0,0,0,0c-0.6,0-0.6,0-0.6,0.5c0,0.4-0.1,0.5-0.5,0.7c-1.4,0.6-1.6,2.5-0.4,3.4c0.3,0.2,0.7,0.4,1.1,0.6
			c0.2,0.1,0.5,0.2,0.7,0.4c0.3,0.2,0.5,0.4,0.4,0.8c-0.1,0.4-0.4,0.5-0.8,0.5c-0.4,0-0.7-0.1-1.1-0.2c-0.9-0.3-0.9-0.3-1.2,0.6
			c-0.1,0.3,0,0.5,0.3,0.6C28.2,34.1,28.6,34.2,29,34.4z"/>
		<path fill="#3E76BB" d="M47.2,37.8c0,0.4,0,0.7,0,1c0,0.2-0.1,0.4-0.3,0.5c-0.1,0.1-0.4,0-0.5-0.1c-1.2-0.9-2.3-1.9-3.5-2.8
			c-0.4-0.3-0.4-0.8,0-1.2c1.1-1,2.3-1.9,3.5-2.8c0.1-0.1,0.4-0.2,0.5-0.1c0.1,0.1,0.3,0.3,0.3,0.5c0,0.3,0,0.6,0,1
			c0.3,0,0.5,0,0.7,0c1.2,0,2.5,0,3.7,0c0.4,0,0.6,0.1,0.6,0.6c0,1,0,2,0,3c0,0.5-0.1,0.6-0.6,0.6c-1.3,0-2.6,0-4,0
			C47.6,37.8,47.5,37.8,47.2,37.8z"/>
	</g>
</g>
</svg>
