<svg xmlns="http://www.w3.org/2000/svg" viewBox="-0.468 1.519 27.171 22.58" enable-background="new -0.468 1.519 27.171 22.58"><g fill="none" stroke="#939292" stroke-linecap="round" stroke-miterlimit="10"><path d="m4.489 18.263c-2.712-1.66-4.458-4.254-4.458-7.168 0-5.01 5.165-9.07 11.526-9.07 6.364 0 11.525 4.064 11.525 9.07 0 4.684-4.504 8.537-10.288 9.02-.407.035-.82.054-1.237.054-.619 0-1.228-.038-1.819-.111m-.004.048c-4.496 3.666-7.565 2.645-7.565 2.645 2.761-1.314 2.339-4.52 2.339-4.52"/><path stroke-linejoin="bevel" d="m15.04 21.13c0 0 1.57 1.047 5.173.884 0 0 1.627 1.298 3.256 1.498 1.623.2 1.529 0 1.529 0s-1.455-.823-1.455-1.627c0-.803.156-1 .156-1s5.265-3.525.534-8.02"/></g></svg>