<svg xmlns="http://www.w3.org/2000/svg" viewBox="0 0 25.324 21.463"><g fill="#017de6" stroke="#017de6" stroke-miterlimit="10"><path stroke-width=".25" d="m12.982 18.2c0 0 1.72 1.219 5.661 1.029 0 0 1.776 1.504 3.56 1.732 1.778.23 1.674 0 1.674 0s-1.588-.953-1.588-1.889c0-.93.168-1.162.168-1.162s5.762-4.09.586-9.298"/><path d="m23.04 9.374c0 1.713-.617 3.313-1.686 4.67-1.785 2.27-4.834 3.855-8.375 4.152-.398.035-.802.053-1.21.053-6.224 0-11.27-3.973-11.27-8.875 0-4.899 5.05-8.874 11.271-8.874 6.223 0 11.27 3.974 11.27 8.874zm-12.953 8.729l-.11.102c-4.379 3.646-7.369 2.631-7.369 2.631 2.688-1.311 2.277-4.496 2.277-4.496"/></g><path fill="none" stroke="#fff" stroke-width=".75" stroke-linecap="round" stroke-linejoin="bevel" d="m12.729 18.224c0 0 9.755-.707 10.267-10.02"/></svg>