<svg xmlns="http://www.w3.org/2000/svg" viewBox="0 0 24.551 24.55" enable-background="new 0 0 24.551 24.55"><circle fill="#017de6" stroke="#017de6" stroke-miterlimit="10" cx="12.275" cy="12.275" r="11.775"/><g fill="#fff"><path d="m19.946 20.864c.014-.012.027-.021.047-.026.047-.063.094-.119.143-.18.037-.064.082-.123.107-.197-.299-.668-2.914-1.194-3.299-1.33-.377-.144-2.086-.807-2.127-.942-.043-.142-.307-1.864-.199-1.937.104-.066.48-.699.504-.912.018-.203.346-1.769.346-1.84 0-.066.313-.511.506-.632.189-.112.492-2.331.389-2.613-.111-.278-.424.002-.424.002s.795-1.608.021-4.866c-2.141-2.387-4.665-1.701-4.665-1.701-1.348.354-1.704 1.078-2.732 1.852-1.03.774-.169 4.752-.169 4.752s-.187-.314-.317-.07c-.188.282.348 2.35.476 2.677.127.326.443-.002.488.604.046.605.279 1.416.43 1.998.15.588.381.771.381.771s-.14 1.397-.326 1.959c-.188.56-1.914.869-2.397.991-.458.111-2.274.337-2.787 1.227-.011.021-.021.041-.033.063 0 0 .017.021.04.045.341.354.056.299.682.503.116.05.236.099.344.161.323.197.63.408.978.561.345.149.367.229 1.01.533.072.033.127.086.189.118.048.022.097.043.148.065.988.326 2.308.615 2.328.617 2.25.274 4.346.068 6.239-.35.197-.086.41-.145.617-.203.338-.208.689-.382 1.072-.518.188-.108.381-.198.588-.287.205-.17.416-.332.648-.447.275-.137.516-.262.762-.445"/><path stroke="#fff" stroke-width=".5" stroke-linejoin="round" stroke-miterlimit="10" d="m4.307 20.512c0 0 7.356 6.684 15.934-.052"/></g></svg>