<svg xmlns="http://www.w3.org/2000/svg" viewBox="0 0 25.385 25.297" enable-background="new 0 0 25.385 25.297"><ellipse fill="none" stroke="#929292" stroke-miterlimit="10" cx="12.694" cy="12.649" rx="12.191" ry="12.149"/><path fill="#929292" d="m20.799 21.984c.016-.015.027-.021.051-.026.049-.064.098-.123.146-.187.037-.065.084-.127.109-.203-.309-.688-3.02-1.231-3.414-1.371-.393-.151-2.162-.835-2.205-.974-.043-.146-.316-1.922-.205-1.998.107-.068.496-.723.521-.94.018-.211.357-1.825.357-1.899 0-.067.324-.526.523-.652.197-.116.51-2.404.402-2.695-.113-.287-.438.002-.438.002s.82-1.659.02-5.02c-2.217-2.462-4.831-1.755-4.831-1.755-1.396.365-1.765 1.112-2.83 1.911-1.067.798-.175 4.903-.175 4.903s-.193-.324-.328-.072c-.195.291.36 2.424.493 2.761.131.337.458-.002.505.624.047.625.289 1.461.445 2.061.156.608.395.797.395.797s-.145 1.44-.338 2.02c-.194.578-1.981.896-2.482 1.023-.474.115-2.354.347-2.886 1.267-.011.021-.021.041-.034.063 0 0 .018.021.042.047.354.363.058.308.706.519.121.051.245.103.357.166.334.203.652.422 1.012.578.357.153.38.235 1.042.551.075.033.132.089.196.122.05.023.1.045.153.068 1.023.336 2.39.635 2.411.637 2.33.281 4.5.07 6.463-.361.203-.088.424-.148.639-.209.35-.218.713-.396 1.109-.535.191-.111.395-.203.607-.296.211-.176.432-.344.672-.461.285-.141.535-.271.789-.459"/><path fill="none" stroke="#929292" stroke-width=".5" stroke-linejoin="round" stroke-miterlimit="10" d="m4.607 21.389c0 0 7.618 6.896 16.501-.054"/></svg>