<svg xmlns="http://www.w3.org/2000/svg" viewBox="0 0 25.388 25.458" enable-background="new 0 0 25.388 25.458"><g stroke="#929292" stroke-miterlimit="10"><path fill="#929292" stroke-width=".25" d="m23.625 12.679c0-.101 0-.2 0-.302l1.607-.401c0-.302 0-.502-.1-.804h-1.607c-.1-.703-.301-1.406-.502-2.108l1.406-.904c-.102-.201-.201-.502-.303-.703l-1.605.401c-.303-.703-.703-1.305-1.205-1.908l1.104-1.205c-.201-.201-.301-.402-.502-.603l-1.406.904c-.502-.502-1.104-1-1.707-1.406l.703-1.507c-.201-.1-.402-.301-.703-.401l-1 1.205c-.604-.301-1.307-.603-2.01-.804l.102-1.607c-.301-.1-.502-.1-.803-.201l-.604 1.506c-.604-.1-1.205-.201-1.808-.201-.1 0-.201 0-.402 0l-.401-1.506c-.301 0-.502 0-.804.1l-.1 1.607c-.603.101-1.306.301-2.01.502l-.903-1.304c-.201.1-.402.2-.703.301l.402 1.607c-.603.301-1.206.603-1.808 1.105l-1.205-1.105c-.201.201-.402.402-.603.603l.904 1.406c-.502.502-1 1-1.406 1.607l-1.507-.703c-.1.201-.301.502-.401.703l1.205 1c-.301.703-.603 1.305-.804 2.01l-1.607-.1c0 .201-.1.502-.201.703l1.506.603c-.1.603-.201 1.205-.201 1.908 0 .101 0 .201 0 .302l-1.506.401c0 .302 0 .503.1.803l1.607.1c.101.703.301 1.406.502 2.109l-1.406.805c.101.201.201.502.301.703l1.607-.402c.301.703.703 1.305 1.105 1.908l-1 1.205c.201.201.301.402.502.604l1.406-.904c.502.502 1.104 1 1.707 1.406l-.601 1.505c.201.1.402.301.703.402l1-1.205c.603.301 1.306.602 2.01.803l-.101 1.607c.301.1.502.1.803.201l.603-1.508c.603.102 1.205.201 1.808.201.101 0 .201 0 .402 0l.401 1.607c.301 0 .502 0 .805-.102l.1-1.605c.703-.102 1.406-.303 2.109-.502l.904 1.404c.199-.1.502-.199.703-.301l-.402-1.607c.602-.301 1.205-.703 1.807-1.104l1.207 1.104c.199-.199.4-.4.602-.502l-.904-1.406c.502-.502 1.01-1 1.406-1.605l1.508.602c.1-.201.301-.502.4-.703l-1.205-1c.301-.602.604-1.305.805-2.01l1.605.1c.102-.301.102-.502.201-.803l-1.506-.604c-.102-.701-.102-1.304-.102-2.01z"/><g stroke-width=".75"><circle fill="#fff" cx="12.804" cy="12.854" r="10.03"/><g fill="none"><path d="m7.535 4.413l5.229 8.738"/><path d="m22.49 12.534l-10.248.617"/><path d="m8.268 21.581l4.392-8.637"/></g></g></g></svg>